<?xml version="1.0" encoding="UTF-8" standalone="no"?>
<!-- Created with Inkscape (http://www.inkscape.org/) -->

<svg
   xmlns:dc="http://purl.org/dc/elements/1.1/"
   xmlns:cc="http://creativecommons.org/ns#"
   xmlns:rdf="http://www.w3.org/1999/02/22-rdf-syntax-ns#"
   xmlns:svg="http://www.w3.org/2000/svg"
   xmlns="http://www.w3.org/2000/svg"
   xmlns:sodipodi="http://sodipodi.sourceforge.net/DTD/sodipodi-0.dtd"
   xmlns:inkscape="http://www.inkscape.org/namespaces/inkscape"
   width="560.79022"
   height="168.59319"
   id="svg2"
   version="1.1"
   inkscape:version="0.92.2 (5c3e80d, 2017-08-06)"
   sodipodi:docname="SerenityLogo.svg"
   inkscape:export-filename="/home/j/j_unsl01/Documents/Serenity/Logo/SerenityLogo.png"
   inkscape:export-xdpi="325.84"
   inkscape:export-ydpi="325.84">
  <defs
     id="defs4" />
  <sodipodi:namedview
     id="base"
     pagecolor="#ffffff"
     bordercolor="#666666"
     borderopacity="1.0"
     inkscape:pageopacity="0.0"
     inkscape:pageshadow="2"
     inkscape:zoom="1.9271746"
     inkscape:cx="153.73063"
     inkscape:cy="43.276835"
     inkscape:document-units="px"
     inkscape:current-layer="layer1"
     showgrid="false"
     inkscape:window-width="3840"
     inkscape:window-height="2061"
     inkscape:window-x="0"
     inkscape:window-y="28"
     inkscape:window-maximized="1"
     height="1052.36px"
     fit-margin-top="0"
     fit-margin-left="0"
     fit-margin-right="0"
     fit-margin-bottom="0">
    <inkscape:grid
       type="xygrid"
       id="grid2997"
       empspacing="5"
       visible="true"
       enabled="true"
       snapvisiblegridlinesonly="true"
       originx="-78.272299"
       originy="-788.82433"
       spacingx="1"
       spacingy="1" />
  </sodipodi:namedview>
  <metadata
     id="metadata7">
    <rdf:RDF>
      <cc:Work
         rdf:about="">
        <dc:format>image/svg+xml</dc:format>
        <dc:type
           rdf:resource="http://purl.org/dc/dcmitype/StillImage" />
        <dc:title />
      </cc:Work>
    </rdf:RDF>
  </metadata>
  <g
     inkscape:label="Layer 1"
     inkscape:groupmode="layer"
     id="layer1"
     transform="translate(-78.272299,-94.944239)">
    <path
       style="fill:none;stroke:#333333;stroke-width:30;stroke-linecap:butt;stroke-linejoin:miter;stroke-miterlimit:4;stroke-opacity:1;stroke-dasharray:none"
       d="M 83.060797,233.8206 C 563.727,313.12592 422.90959,41.74992 633.4738,126.21364"
       id="path2991"
       inkscape:connector-curvature="0"
       sodipodi:nodetypes="cc" />
    <g
       aria-label="SERENITY"
       transform="scale(0.97043851,1.030462)"
       style="font-style:normal;font-variant:normal;font-weight:normal;font-stretch:normal;line-height:0%;font-family:sans-serif;-inkscape-font-specification:'Adobe Helvetica';letter-spacing:0px;word-spacing:0px;fill:#307800;fill-opacity:1;stroke:none"
       id="text3767-2">
      <path
         d="m 131.32359,102.58172 v 14.82478 q -5.7704,-2.58026 -11.25932,-3.89385 -5.48892,-1.31358 -10.36797,-1.31358 -6.47411,0 -9.57042,1.78272 -3.096316,1.78273 -3.096316,5.53584 0,2.81483 2.06421,4.4099 2.111126,1.54816 7.600046,2.67409 l 7.69387,1.54816 q 11.68155,2.34569 16.6075,7.1309 4.92596,4.78521 4.92596,13.60502 0,11.58772 -6.89634,17.2643 -6.84942,5.62966 -20.97049,5.62966 -6.66177,0 -13.370449,-1.26667 -6.708681,-1.26668 -13.417362,-3.75311 v -15.247 q 6.708681,3.56545 12.948224,5.39509 6.286457,1.78273 12.103777,1.78273 5.91114,0 9.05437,-1.97039 3.14323,-1.97038 3.14323,-5.62966 0,-3.28397 -2.15804,-5.0667 -2.11112,-1.78272 -8.49141,-3.19014 l -6.99016,-1.54815 q -10.508703,-2.25187 -15.387744,-7.17782 -4.832127,-4.92596 -4.832127,-13.27663 0,-10.46179 6.755595,-16.09145 6.755595,-5.62966 19.422336,-5.62966 5.7704,0 11.8692,0.89136 6.09881,0.84445 12.61983,2.58026 z"
         style="font-size:96.07957458px;font-family:sans-serif;fill:#307800;fill-opacity:1"
         id="path831" />
      <path
         d="m 139.38123,110.15657 h 38.44915 v 10.76872 h -24.20187 v 10.28764 h 22.75864 v 10.76873 h -22.75864 v 12.65602 h 25.016 v 10.76872 h -39.26328 z"
         style="font-weight:bold;font-size:75.78811646px;line-height:125%;font-family:sans-serif;-inkscape-font-specification:'Sans Bold';word-spacing:0px;fill:#307800;fill-opacity:1"
         id="path833" />
      <path
         d="m 202.17335,134.65448 q 4.47771,0 6.40202,-1.66526 1.96131,-1.66527 1.96131,-5.47688 0,-3.7746 -1.96131,-5.40286 -1.92431,-1.62826 -6.40202,-1.62826 h -5.99496 v 14.17326 z m -5.99496,9.84358 v 20.90834 h -14.24728 v -55.24983 h 21.75948 q 10.91675,0 15.98656,3.66358 5.10681,3.66359 5.10681,11.58286 0,5.47687 -2.66442,8.99243 -2.62742,3.51557 -7.95628,5.18083 2.92347,0.66611 5.21784,3.03449 2.33137,2.33137 4.69975,7.10513 l 7.73424,15.69051 h -15.17243 l -6.73508,-13.72919 q -2.03532,-4.14467 -4.14466,-5.66191 -2.07233,-1.51724 -5.55089,-1.51724 z"
         style="font-weight:bold;font-size:75.78811646px;line-height:125%;font-family:sans-serif;-inkscape-font-specification:'Sans Bold';word-spacing:0px;fill:#307800;fill-opacity:1"
         id="path835" />
      <path
         d="m 233.63929,110.15657 h 38.44915 v 10.76872 h -24.20187 v 10.28764 h 22.75864 v 10.76873 h -22.75864 v 12.65602 h 25.016 v 10.76872 h -39.26328 z"
         style="font-weight:bold;font-size:75.78811646px;line-height:125%;font-family:sans-serif;-inkscape-font-specification:'Sans Bold';word-spacing:0px;fill:#307800;fill-opacity:1"
         id="path837" />
      <path
         d="m 276.18918,110.15657 h 15.91254 l 20.09421,37.89406 v -37.89406 h 13.50716 v 55.24983 h -15.91254 l -20.09422,-37.89406 v 37.89406 h -13.50715 z"
         style="font-weight:bold;font-size:75.78811646px;line-height:125%;font-family:sans-serif;-inkscape-font-specification:'Sans Bold';word-spacing:0px;fill:#307800;fill-opacity:1"
         id="path839" />
      <path
         d="m 329.1103,110.15657 h 14.24728 V 165.4064 H 329.1103 Z"
         style="font-weight:bold;font-size:75.78811646px;line-height:125%;font-family:sans-serif;-inkscape-font-specification:'Sans Bold';word-spacing:0px;fill:#307800;fill-opacity:1"
         id="path841" />
      <path
         d="m 346.82789,110.15657 h 50.92014 v 10.76872 H 379.4301 v 44.48111 h -14.24727 v -44.48111 h -18.35494 z"
         style="font-weight:bold;font-size:75.78811646px;line-height:125%;font-family:sans-serif;-inkscape-font-specification:'Sans Bold';word-spacing:0px;fill:#307800;fill-opacity:1"
         id="path843" />
      <path
         d="m 397.37796,110.15657 h 15.57949 l 12.58201,19.68715 12.58202,-19.68715 h 15.61649 l -21.05636,31.97311 v 23.27672 h -14.24728 v -23.27672 z"
         style="font-weight:bold;font-size:75.78811646px;line-height:125%;font-family:sans-serif;-inkscape-font-specification:'Sans Bold';word-spacing:0px;fill:#307800;fill-opacity:1"
         id="path845" />
    </g>
    <text
       xml:space="preserve"
       style="font-style:normal;font-variant:normal;font-weight:normal;font-stretch:normal;line-height:0%;font-family:sans-serif;-inkscape-font-specification:'Adobe Helvetica';letter-spacing:0px;word-spacing:0px;fill:#000000;fill-opacity:1;stroke:none"
       x="-283.99121"
       y="229.74165"
       id="text4167"><tspan
         sodipodi:role="line"
         id="tspan4169"
         x="-283.99121"
         y="229.74165"
         style="font-size:20px;line-height:1.25;font-family:sans-serif"> </tspan><tspan
         sodipodi:role="line"
         x="-283.99121"
         y="254.74165"
         id="tspan4171"
         style="font-size:20px;line-height:1.25;font-family:sans-serif"> </tspan></text>
    <flowRoot
       xml:space="preserve"
       id="flowRoot4177"
       style="font-style:normal;font-variant:normal;font-weight:normal;font-stretch:normal;line-height:0.01%;font-family:sans-serif;-inkscape-font-specification:'Adobe Helvetica';letter-spacing:0px;word-spacing:0px;fill:#000000;fill-opacity:1;stroke:none"><flowRegion
         id="flowRegion4179"
         style="font-family:sans-serif"><rect
           id="rect4181"
           width="592.19873"
           height="99.066704"
           x="-12.475066"
           y="317.80093"
           style="font-family:sans-serif" /></flowRegion><flowPara
         id="flowPara4183"
         style="font-size:20px;line-height:1.25;font-family:sans-serif"> </flowPara></flowRoot>    <path
       sodipodi:type="arc"
       style="fill:#54d200;fill-opacity:1;stroke:#55d400;stroke-width:5;stroke-miterlimit:4;stroke-opacity:1;stroke-dasharray:none"
       id="path2999"
       sodipodi:cx="575.32068"
       sodipodi:cy="248.08731"
       sodipodi:rx="62.375332"
       sodipodi:ry="62.375332"
       d="m 637.69601,248.08731 a 62.375332,62.375332 0 0 1 -62.37533,62.37533 62.375332,62.375332 0 0 1 -62.37533,-62.37533 62.375332,62.375332 0 0 1 62.37533,-62.37533 62.375332,62.375332 0 0 1 62.37533,62.37533 z"
       transform="matrix(0.94344326,0,0,0.94344326,22.998504,-40.272221)" />
    <path
       sodipodi:type="arc"
       style="fill:#47b400;fill-opacity:1;stroke:#338000;stroke-width:0;stroke-miterlimit:4;stroke-opacity:1;stroke-dasharray:none"
       id="path3028"
       sodipodi:cx="456.44067"
       sodipodi:cy="269.73523"
       sodipodi:rx="24.216305"
       sodipodi:ry="20.914082"
       d="m 480.65698,269.73523 a 24.216305,20.914082 0 0 1 -24.21631,20.91408 24.216305,20.914082 0 0 1 -24.2163,-20.91408 24.216305,20.914082 0 0 1 24.2163,-20.91408 24.216305,20.914082 0 0 1 24.21631,20.91408 z"
       transform="matrix(1.1178556,0,0,1.294359,-33.047278,-121.49742)" />
    <path
       sodipodi:type="arc"
       style="fill:#3c9600;fill-opacity:1;stroke:#3d9900;stroke-width:0;stroke-miterlimit:4;stroke-opacity:1;stroke-dasharray:none"
       id="path3028-2"
       sodipodi:cx="456.44067"
       sodipodi:cy="269.73523"
       sodipodi:rx="24.216305"
       sodipodi:ry="20.914082"
       d="m 480.65698,269.73523 a 24.216305,20.914082 0 0 1 -24.21631,20.91408 24.216305,20.914082 0 0 1 -24.2163,-20.91408 24.216305,20.914082 0 0 1 24.2163,-20.91408 24.216305,20.914082 0 0 1 24.21631,20.91408 z"
       transform="matrix(0.56341177,0,0,0.65237148,175.21389,65.331251)" />
    <path
       sodipodi:type="arc"
       style="fill:#307800;fill-opacity:1;stroke:#338000;stroke-width:5;stroke-miterlimit:4;stroke-opacity:1;stroke-dasharray:none"
       id="path3028-2-3"
       sodipodi:cx="456.44067"
       sodipodi:cy="269.73523"
       sodipodi:rx="24.216305"
       sodipodi:ry="20.914082"
       d="m 480.65698,269.73523 a 24.216305,20.914082 0 0 1 -24.21631,20.91408 24.216305,20.914082 0 0 1 -24.2163,-20.91408 24.216305,20.914082 0 0 1 24.2163,-20.91408 24.216305,20.914082 0 0 1 24.21631,20.91408 z"
       transform="matrix(0.23613362,0,0,0.27341785,296.92484,174.7038)" />
  </g>
</svg>
